<svg width="778" height="737" viewBox="0 0 778 737" fill="none" xmlns="http://www.w3.org/2000/svg">
<path d="M77.6893 19.578H46.0038L64.1706 45.5382L281.626 356.28L49.3956 694.663L31.6642 720.5H63H220.91H229.52L234.444 713.437L386.252 495.717L537.942 710.442L542.872 717.422H551.418H713H745.326L726.363 691.243L483.615 356.131L708.055 42.6044L726.742 16.5H694.638H529.384H520.47L515.584 23.9557L386.066 221.584L256.685 26.9439L251.788 19.578H242.943H77.6893Z" fill="black" stroke="white" stroke-width="33"/>
<path d="M77.6977 36.078L301.837 356.188L63 704H221L695 33H529.651L386.349 251.537L243.047 36.078H77.6977Z" fill="#0ACF83" stroke="#0ACF83" stroke-width="20"/>
</svg>
